<?xml version='1.0' encoding='UTF-8'?>
<svg xmlns="http://www.w3.org/2000/svg" width="624.0" height="118.4" viewBox="88.0 340.6 624.0 118.4">
<path d="M0 0 C7.4230342 6.26531327 12.53609967 15.14583507 14.0625 24.75 C14.86811507 39.17360823 13.27352547 51.49458971 3.28125 62.7578125 C-11.45162764 76.70574174 -33.04507098 77.60722957 -52.1484375 77.1328125 C-65.06360419 76.56159929 -77.10680627 74.20781333 -87.9375 66.75 C-88.60007813 66.29882812 -89.26265625 65.84765625 -89.9453125 65.3828125 C-97.59143028 59.52409888 -102.37892077 50.15342802 -103.9375 40.75 C-105.09703454 25.99814396 -102.61876811 15.34173736 -93.4140625 3.84765625 C-73.39793899 -18.46299849 -22.87533666 -16.4702424 0 0 Z " fill="#FCFCFC" transform="translate(311.9375,367.25)" />
<path d="M0 0 C12.045 -0.061875 24.09 -0.12375 36.5 -0.1875 C42.15479492 -0.22846802 42.15479492 -0.22846802 47.92382812 -0.27026367 C52.61230469 -0.28381348 52.61230469 -0.28381348 54.8236084 -0.28633118 C56.33209915 -0.29086666 57.8405807 -0.30126474 59.34899902 -0.31672668 C75.63364887 -0.47495887 95.1541679 0.34357098 108.2734375 11.1953125 C113.52768076 16.68730432 115.31468739 22.48716841 115.625 30 C115.34002264 37.27483872 113.54138725 43.25029586 108.47265625 48.6171875 C106.9375 49.9375 106.9375 49.9375 104 52 C103.21625 52.598125 102.4325 53.19625 101.625 53.8125 C101.08875 54.204375 100.5525 54.59625 100 55 C100.53109375 55.268125 101.0621875 55.53625 101.609375 55.8125 C107.54419924 59.10481125 109.68844784 61.57902178 112 68 C112.99 73.28 113.98 78.56 115 84 C103.78 84 92.56 84 81 84 C78.3125 76.3125 78.3125 76.3125 77.5012207 73.91918945 C75.5404126 68.51381084 73.12844208 64.55665944 67.77783203 61.89428711 C64.41575179 60.81190884 61.4797853 60.67607962 57.94921875 60.5859375 C57.29041214 60.56657135 56.63160553 60.5472052 55.95283508 60.5272522 C53.86451857 60.46784059 51.77614576 60.42122709 49.6875 60.375 C48.26495095 60.33678468 46.84242416 60.29773091 45.41992188 60.2578125 C41.94673552 60.16060379 38.47376403 60.0807358 35 60 C35 67.92 35 75.84 35 84 C23.45 84 11.9 84 0 84 C0 56.28 0 28.56 0 0 Z " fill="#FDFDFD" transform="translate(340,358)" />
<path d="M0 0 C5.92495762 5.50844039 8.74383696 10.30342165 11 18 C5.73482458 18.14914428 0.4708979 18.25758661 -4.79589844 18.32958984 C-6.58452798 18.35962642 -8.3730119 18.40046952 -10.16113281 18.45263672 C-26.954438 18.93003837 -26.954438 18.93003837 -31.96875 15.0390625 C-32.48888672 14.49717285 -33.00902344 13.9552832 -33.54492188 13.39697266 C-37.64013246 9.46529565 -44.99423416 10.61848304 -50.2890625 10.72265625 C-56.74244263 11.2049615 -60.72511491 13.28372361 -64.9375 18.125 C-68.07301094 22.49571222 -68.18649425 24.85201157 -68.25 30.25 C-68.28867187 32.20679688 -68.28867187 32.20679688 -68.328125 34.203125 C-67.90864055 39.05715934 -66.58904122 42.27733486 -63.28125 45.86328125 C-62.39953125 46.58064453 -62.39953125 46.58064453 -61.5 47.3125 C-60.9121875 47.80363281 -60.324375 48.29476562 -59.71875 48.80078125 C-55.16036483 51.9812909 -49.63155441 51.26045446 -44.3125 51.3125 C-43.34376953 51.34150391 -42.37503906 51.37050781 -41.37695312 51.40039062 C-34.77786804 51.45839475 -30.66623854 50.40780894 -25 47 C-28.96 46.67 -32.92 46.34 -37 46 C-37 41.05 -37 36.1 -37 31 C-21.16 31 -5.32 31 11 31 C11 44.86 11 58.72 11 73 C6.05 73 1.1 73 -4 73 C-4.99 69.535 -4.99 69.535 -6 66 C-7.134375 66.598125 -8.26875 67.19625 -9.4375 67.8125 C-28.81209012 77.44871969 -53.60136905 78.01341613 -74.23828125 72.265625 C-79.62307001 70.45392037 -84.32309728 68.22042782 -89 65 C-89.66257812 64.54882812 -90.32515625 64.09765625 -91.0078125 63.6328125 C-98.08894279 58.20701137 -103.03344433 49.36282499 -104.60546875 40.640625 C-105.95695464 28.16948783 -105.61512653 17.27448408 -98.25 6.75 C-88.053899 -5.71473347 -75.01463237 -10.95779101 -59.24023438 -12.80810547 C-38.93977094 -14.54700742 -16.34887442 -13.62921289 0 0 Z " fill="#FCFCFC" transform="translate(569,369)" />
<path d="M0 0 C31.68 0 63.36 0 96 0 C96 6.93 96 13.86 96 21 C75.87 21 55.74 21 35 21 C35 25.29 35 29.58 35 34 C51.83 34 68.66 34 86 34 C86 39.28 86 44.56 86 50 C69.17 50 52.34 50 35 50 C35 61.22 35 72.44 35 84 C23.45 84 11.9 84 0 84 C0 56.28 0 28.56 0 0 Z " fill="#FFFFFF" transform="translate(102,358)" />
<path d="M0 0 C20.13 0 40.26 0 61 0 C56.48601414 6.7709788 51.78636703 13.41874534 47 20 C60.86 20.495 60.86 20.495 75 21 C72.33333333 25 69.66666667 29 67 33 C73.6 33.33 80.2 33.66 87 34 C87 39.28 87 44.56 87 50 C75.78 50 64.56 50 53 50 C59 41 59 41 64 35 C55.09 34.67 46.18 34.34 37 34 C38.56998315 30.86003369 40.17021411 28.13968349 42.125 25.25 C42.66382813 24.45078125 43.20265625 23.6515625 43.7578125 22.828125 C44.16773438 22.22484375 44.57765625 21.6215625 45 21 C41.7 21 38.4 21 35 21 C35.23460937 21.79019531 35.46921875 22.58039063 35.7109375 23.39453125 C36.95423734 29.79386868 36.96609018 34.00147385 33.44140625 39.4921875 C30.47070289 43.63040292 27.26145072 47.57482554 24.02246094 51.50488281 C20.71906397 55.58029529 17.65107573 59.82347599 14.5625 64.0625 C13.40382062 65.63294147 12.24497351 67.20325921 11.0859375 68.7734375 C8.0185182 72.95323809 5.04139583 77.18564395 2.13671875 81.48046875 C1.76160156 81.98191406 1.38648438 82.48335938 1 83 C0.67 83 0.34 83 0 83 C0 55.61 0 28.22 0 0 Z " fill="#FDFDFD" transform="translate(597,358)" />
<path d="M0 0 C3.81584993 3.62223387 6.86856679 6.88695839 7.203125 12.265625 C7.21859375 13.58046875 7.2340625 14.8953125 7.25 16.25 C7.27578125 17.55453125 7.3015625 18.8590625 7.328125 20.203125 C6.91093647 25.03059224 5.60496822 28.25725028 2.31640625 31.828125 C1.73761719 32.29734375 1.15882813 32.7665625 0.5625 33.25 C-0.01371094 33.72953125 -0.58992188 34.2090625 -1.18359375 34.703125 C-5.71091661 37.93553616 -9.36250117 38.31068806 -14.875 38.25 C-15.56980469 38.25773437 -16.26460938 38.26546875 -16.98046875 38.2734375 C-23.57526973 38.24859832 -28.32639274 37.06400025 -33.25 32.625 C-33.91515625 32.03976562 -34.5803125 31.45453125 -35.265625 30.8515625 C-39.94268882 25.85848086 -39.5635504 20.26519943 -39.3828125 13.71484375 C-38.72203702 7.30262458 -36.04316701 4.04316701 -31.625 -0.375 C-22.43994439 -6.0609868 -8.96786332 -6.22517675 0 0 Z " fill="#02020200" transform="translate(283,383)" />
<path d="M0 0 C5.94 0 11.88 0 18 0 C15.33333333 4 12.66666667 8 10 12 C28.48 12.33 46.96 12.66 66 13 C66 19.93 66 26.86 66 34 C41.91 34 17.82 34 -7 34 C-3.59202439 28.88803659 -0.24897993 23.8736106 3.375 18.9375 C4.40753906 17.52791016 4.40753906 17.52791016 5.4609375 16.08984375 C5.96882812 15.40019531 6.47671875 14.71054687 7 14 C4.69 13.67 2.38 13.34 0 13 C0 8.71 0 4.42 0 0 Z " fill="#FEFEFE" transform="translate(632,408)" />
<path d="M0 0 C4.57178994 -0.04610208 9.14276179 -0.08586917 13.71459961 -0.10986328 C15.26736191 -0.11987381 16.82010558 -0.13348634 18.37280273 -0.15087891 C20.61446755 -0.17534652 22.85588149 -0.18653268 25.09765625 -0.1953125 C25.78336197 -0.20563507 26.46906769 -0.21595764 27.17555237 -0.22659302 C32.67990252 -0.22785257 37.44349927 0.82007659 42.4375 3.125 C44.52628478 5.63154173 44.61791099 7.86094366 44.453125 11.0625 C44 13 44 13 41.8125 15.4375 C36.74808942 18.25106143 31.75468993 18.13849543 26.07421875 18.09765625 C24.95283257 18.09553383 24.95283257 18.09553383 23.80879211 18.09336853 C21.43498635 18.08779764 19.06127697 18.0752506 16.6875 18.0625 C15.07226699 18.05748123 13.4570325 18.05291899 11.84179688 18.04882812 C7.89446478 18.03869117 3.94733953 18.0191103 0 18 C0 12.06 0 6.12 0 0 Z " fill="#04040400" transform="translate(375,379)" />
<path d="M0 0 C0 6.93 0 13.86 0 21 C-6.93 21 -13.86 21 -21 21 C-19.03289254 17.97368083 -17.03347002 14.98159101 -15 12 C-14.27683594 10.92105469 -13.55367187 9.84210938 -12.80859375 8.73046875 C-12.0408281 7.63157681 -11.27130975 6.53390725 -10.5 5.4375 C-9.7884375 4.40496094 -9.076875 3.37242187 -8.34375 2.30859375 C-6 0 -6 0 0 0 Z " fill="#FCFCFC" transform="translate(693,358)" />
<path d="M0 0 C3.3 0 6.6 0 10 0 C8.91658882 3.34872546 7.7295519 5.32321846 5.4375 8.0625 C3.17652851 10.78726051 2.69514061 11.75601047 2 15 C1.01 15.66 0.02 16.32 -1 17 C-0.83628906 16.47921875 -0.67257812 15.9584375 -0.50390625 15.421875 C0.14058659 12.3243125 0.09411589 9.41158906 0.0625 6.25 C0.05347656 5.07953125 0.04445313 3.9090625 0.03515625 2.703125 C0.02355469 1.81109375 0.01195312 0.9190625 0 0 Z " fill="#0D0D0D00" transform="translate(632,379)" />
</svg>